<svg xmlns="http://www.w3.org/2000/svg" viewBox="0 0 504 455.52"><defs><style>.cls-1{fill:#fff;}</style></defs><title>Asset 1</title><g id="Layer_2" data-name="Layer 2"><g id="Layer_1-2" data-name="Layer 1"><path class="cls-1" d="M464,44.58A134.55,134.55,0,0,0,363.21,0C334.11,0,307.47,9.34,284,27.77a163.52,163.52,0,0,0-32,34,163.26,163.26,0,0,0-32-34C196.53,9.34,169.89,0,140.79,0A134.55,134.55,0,0,0,40,44.58C14.2,73,0,111.8,0,153.87c0,43.3,15.88,82.94,50,124.74C80.5,316,124.34,354,175.12,397.93c17.34,15,37,32,57.4,50.15a29.24,29.24,0,0,0,39,0c20.4-18.13,40.07-35.16,57.41-50.18C379.66,354,423.51,316,454,278.61c34.1-41.8,50-81.44,50-124.74C504,111.8,489.8,73,464,44.58Z"/></g></g></svg>